<svg width="3851" height="876" viewBox="0 0 3851 876" fill="none" xmlns="http://www.w3.org/2000/svg">
<path d="M2981.95 498.062V691.013L3319.62 875.282L3657.28 691.013V498.062L3319.62 682.33L2981.95 498.062ZM3319.62 7L2789 296.427L3319.62 585.854L3753.76 349.007V682.33H3850.23V296.427L3319.62 7Z" fill="#4296E3"/>
<path d="M180.394 441V284.549C180.394 274.642 177.779 267.211 172.55 262.258C167.597 257.304 160.717 254.827 151.91 254.827H20.64L28.896 189.605H155.626C190.026 189.605 215.894 197.448 233.232 213.134C250.845 228.821 259.651 252.213 259.651 283.31V441H180.394ZM24.768 441V310.555L104.026 306.427V441H24.768ZM286.557 254.827V189.605H509.469L501.213 254.827H286.557ZM388.519 441V302.299C388.519 298.171 389.207 293.08 390.583 287.026C391.959 280.696 394.436 274.642 398.013 268.862C401.591 262.808 406.682 258.13 413.287 254.827H476.445C472.042 257.304 469.428 260.882 468.602 265.56C468.052 270.238 467.777 275.88 467.777 282.485V441H388.519ZM561.005 338.626V189.605H640.262V338.626H561.005ZM530.045 254.827L538.301 189.605H605.174V254.827H530.045ZM681.304 441L708.549 295.282L673.461 189.605H752.718L765.102 240.379H767.579C771.982 229.646 776.798 220.702 782.027 213.547C787.531 206.392 793.723 200.888 800.603 197.035C807.758 192.907 815.601 190.018 824.133 188.366C832.939 186.44 842.846 185.477 853.854 185.477C874.219 185.477 891.969 190.568 907.105 200.75C922.517 210.658 934.488 224.83 943.019 243.269C951.825 261.707 956.229 283.586 956.229 308.904V314.27C956.229 339.038 951.413 361.054 941.781 380.318C932.424 399.307 918.801 414.168 900.913 424.901C883.025 435.634 861.422 441 836.104 441H797.713L806.795 375.778H831.976C846.011 375.778 857.019 369.998 865 358.44C872.981 346.606 876.971 331.883 876.971 314.27V308.904C876.971 297.07 875.182 286.888 871.605 278.357C868.027 269.826 863.211 263.358 857.157 258.955C851.102 254.277 844.222 251.938 836.517 251.938C827.985 251.938 820.83 253.038 815.051 255.24C809.272 257.442 804.456 261.019 800.603 265.973C796.75 270.926 793.585 277.256 791.109 284.962C788.632 292.392 786.568 301.474 784.917 312.206L763.451 441H681.304ZM1052.19 189.605H1192.96L1188 235.013L1114.11 441H1031.55L1100.9 254.827H972.934V135.528L1052.19 127.272V189.605ZM1520.58 441V284.549C1520.58 274.642 1517.96 267.211 1512.73 262.258C1507.78 257.304 1500.9 254.827 1492.09 254.827H1371.56V189.605H1495.81C1530.21 189.605 1556.08 197.448 1573.42 213.134C1591.03 228.821 1599.84 252.213 1599.84 283.31V441H1520.58ZM1329.04 441L1337.29 375.778H1352.16C1356.56 375.778 1360.14 374.952 1362.89 373.301C1365.64 371.65 1367.7 369.173 1369.08 365.87C1370.73 362.568 1371.56 358.578 1371.56 353.899V204.053H1450.81V349.771C1450.81 379.768 1443.93 402.472 1430.17 417.883C1416.41 433.294 1396.05 441 1369.08 441H1329.04ZM1333.99 254.827L1342.25 189.605H1417.38V254.827H1333.99ZM1632.9 441V375.778H1710.5C1725.37 375.778 1736.24 370.686 1743.12 360.504C1750 350.322 1753.44 336.286 1753.44 318.398C1753.44 298.309 1750 282.76 1743.12 271.752C1736.24 260.469 1725.37 254.827 1710.5 254.827H1632.9L1641.15 189.605H1710.5C1750.68 189.605 1781.23 201.026 1802.15 223.867C1823.34 246.434 1833.93 277.944 1833.93 318.398C1833.93 356.926 1823.34 387.061 1802.15 408.802C1781.23 430.267 1750.68 441 1710.5 441H1632.9ZM1971.03 441V284.549C1971.03 274.642 1968.41 267.211 1963.18 262.258C1958.23 257.304 1951.35 254.827 1942.54 254.827H1858.74L1867 189.605H1946.26C1980.66 189.605 2006.53 197.448 2023.87 213.134C2041.48 228.821 2050.28 252.213 2050.28 283.31V441H1971.03ZM2083.19 457.512V392.29L2191.76 372.062C2200.01 370.411 2207.3 367.797 2213.63 364.219C2219.96 360.366 2225.33 354.725 2229.73 347.294C2234.14 339.589 2237.71 329.544 2240.47 317.16C2243.49 304.776 2245.69 289.09 2247.07 270.101L2253.26 189.605H2332.52L2325.92 272.99C2324.81 285.925 2323.16 299.134 2320.96 312.619C2318.76 326.104 2315.04 339.314 2309.82 352.248C2304.59 365.182 2297.16 377.291 2287.52 388.574C2277.89 399.582 2265.23 409.352 2249.55 417.883C2234.14 426.139 2214.87 432.469 2191.76 436.872L2083.19 457.512ZM2138.09 413.342L2096.4 194.558L2174 185.477L2197.12 320.875C2199.32 331.608 2199.6 342.616 2197.95 353.899C2196.3 365.182 2192.86 376.053 2187.63 386.51C2182.4 396.693 2175.66 405.637 2167.4 413.342H2138.09ZM2361.13 441L2388.37 295.282L2353.28 189.605H2432.54L2444.92 240.379H2447.4C2451.8 229.646 2456.62 220.702 2461.85 213.547C2467.35 206.392 2473.55 200.888 2480.43 197.035C2487.58 192.907 2495.42 190.018 2503.95 188.366C2512.76 186.44 2522.67 185.477 2533.68 185.477C2554.04 185.477 2571.79 190.568 2586.93 200.75C2602.34 210.658 2614.31 224.83 2622.84 243.269C2631.65 261.707 2636.05 283.586 2636.05 308.904V314.27C2636.05 339.038 2631.23 361.054 2621.6 380.318C2612.25 399.307 2598.62 414.168 2580.74 424.901C2562.85 435.634 2541.24 441 2515.93 441H2477.54L2486.62 375.778H2511.8C2525.83 375.778 2536.84 369.998 2544.82 358.44C2552.8 346.606 2556.79 331.883 2556.79 314.27V308.904C2556.79 297.07 2555 286.888 2551.43 278.357C2547.85 269.826 2543.03 263.358 2536.98 258.955C2530.92 254.277 2524.04 251.938 2516.34 251.938C2507.81 251.938 2500.65 253.038 2494.87 255.24C2489.09 257.442 2484.28 261.019 2480.43 265.973C2476.57 270.926 2473.41 277.256 2470.93 284.962C2468.45 292.392 2466.39 301.474 2464.74 312.206L2443.27 441H2361.13Z" fill="black"/>
<path fill-rule="evenodd" clip-rule="evenodd" d="M2645 514.344H1700V788.905H2645V514.344ZM1918.88 639.844V727H1963.03V639.154C1963.03 621.83 1958.12 608.798 1948.31 600.06C1938.65 591.321 1924.24 586.952 1905.08 586.952H1860.93L1856.33 623.286H1903.01C1907.91 623.286 1911.75 624.666 1914.51 627.425C1917.42 630.185 1918.88 634.324 1918.88 639.844ZM2076.11 622.826L2047.13 727H2091.28L2123.25 612.478L2125.55 586.952H1988.26L1983.66 622.826H2076.11ZM1988.26 649.732V768.394L2032.41 766.094V647.432L1988.26 649.732ZM2155.41 623.286V669.969H2199.57V586.952H2180.02H2155.41H2142.77L2138.17 623.286H2155.41ZM2220.36 586.952V623.286H2290.96C2287.28 625.126 2284.44 627.732 2282.45 631.105C2280.46 634.324 2279.08 637.697 2278.31 641.223C2277.55 644.596 2277.16 647.432 2277.16 649.732V727H2321.32V638.694C2321.32 635.014 2321.47 631.871 2321.78 629.265C2322.24 626.659 2323.69 624.666 2326.15 623.286H2339.94L2344.54 586.952H2220.36ZM2358.99 690.666V727H2407.75C2425.22 727 2440.02 724.24 2452.13 718.721C2464.39 713.049 2473.67 704.923 2479.96 694.345C2486.39 683.613 2489.61 670.735 2489.61 655.711C2489.61 633.634 2483.33 616.31 2470.76 603.739C2458.34 591.014 2440.71 584.652 2417.86 584.652C2403.76 584.652 2392.03 586.798 2382.68 591.091C2373.33 595.23 2366.35 601.056 2361.75 608.568C2357.15 615.927 2354.85 624.436 2354.85 634.094C2354.85 646.053 2357.84 656.018 2363.82 663.99C2369.96 671.809 2377.93 676.791 2387.74 678.937C2392.65 680.011 2396.78 680.701 2400.16 681.007C2403.53 681.314 2406.44 681.237 2408.9 680.777L2412.58 649.502C2411.5 649.502 2410.2 649.272 2408.67 648.812C2407.13 648.352 2405.68 647.816 2404.3 647.202C2402 646.129 2400.16 644.596 2398.78 642.603C2397.55 640.61 2396.94 638.234 2396.94 635.474C2396.94 631.182 2398.47 627.732 2401.54 625.126C2404.6 622.366 2410.05 620.986 2417.86 620.986C2427.83 620.986 2434.81 624.129 2438.79 630.415C2442.78 636.547 2444.77 644.979 2444.77 655.711C2444.77 663.07 2443.54 669.356 2441.09 674.568C2438.64 679.781 2434.96 683.767 2430.05 686.526C2425.3 689.286 2419.4 690.666 2412.35 690.666H2358.99Z" fill="#4296E3"/>
</svg>
